<svg xmlns="http://www.w3.org/2000/svg" viewBox="0 0 24 24" id="Programming-Hold-Code-2--Streamline-Ultimate"><desc>Programming Hold Code 2 Streamline Icon: https://streamlinehq.com</desc><defs/><path d="M6 6.5a6.5 6.5 0 1 0 13 0 6.5 6.5 0 1 0 -13 0" fill="#dff9ff" stroke-width="1.0000"/><path d="M7.243 16.866 6.1 15.154a1.4 1.4 0 0 0 -2.6 0.606l0 -0.01V12a1.5 1.5 0 0 0 -3 0v5.172a4.5 4.5 0 0 0 0.986 2.811L3.5 22.5H8v-3.136a4.493 4.493 0 0 0 -0.757 -2.498Z" fill="#dff9ff" stroke-width="1.0000"/><path d="M22 10.5a1.5 1.5 0 0 0 -1.5 1.5v3.75l0 0.01a1.4 1.4 0 0 0 -0.619 -1.051 1.4 1.4 0 0 0 -1.977 0.445l-1.142 1.712a4.493 4.493 0 0 0 -0.757 2.5V22.5h4.5l2.014 -2.517a4.5 4.5 0 0 0 0.986 -2.811V12A1.5 1.5 0 0 0 22 10.5Z" fill="#dff9ff" stroke-width="1.0000"/><path d="m3.5 22.5 -2.014 -2.517A4.5 4.5 0 0 1 0.5 17.171V12A1.5 1.5 0 0 1 2 10.5h0A1.5 1.5 0 0 1 3.5 12v3.75" fill="none" stroke="#2aaae2" stroke-linecap="round" stroke-linejoin="round" stroke-width="1.0000"/><path d="M8 22.5v-3.136a4.493 4.493 0 0 0 -0.757 -2.5L6.1 15.154a1.4 1.4 0 0 0 -1.977 -0.445h0a1.4 1.4 0 0 0 -0.475 1.791L5 18.75" fill="none" stroke="#2aaae2" stroke-linecap="round" stroke-linejoin="round" stroke-width="1.0000"/><path d="m20.5 22.5 2.014 -2.517a4.5 4.5 0 0 0 0.986 -2.812V12a1.5 1.5 0 0 0 -1.5 -1.5h0a1.5 1.5 0 0 0 -1.5 1.5v3.75" fill="none" stroke="#2aaae2" stroke-linecap="round" stroke-linejoin="round" stroke-width="1.0000"/><path d="M16 22.5v-3.136a4.493 4.493 0 0 1 0.757 -2.5l1.143 -1.71a1.4 1.4 0 0 1 1.977 -0.445h0a1.4 1.4 0 0 1 0.476 1.791L19 18.75" fill="none" stroke="#2aaae2" stroke-linecap="round" stroke-linejoin="round" stroke-width="1.0000"/><path d="m16.5 2 4 4 -4 4" fill="none" stroke="#2aaae2" stroke-linecap="round" stroke-linejoin="round" stroke-width="1.0000"/><path d="m8.5 2 -4 4 4 4" fill="none" stroke="#2aaae2" stroke-linecap="round" stroke-linejoin="round" stroke-width="1.0000"/><path d="m13.5 1.5 -2 9" fill="none" stroke="#2aaae2" stroke-linecap="round" stroke-linejoin="round" stroke-width="1.0000"/></svg>