<svg xmlns="http://www.w3.org/2000/svg" viewBox="0 0 24 24" id="Database-Connect--Streamline-Ultimate"><desc>Database Connect Streamline Icon: https://streamlinehq.com</desc><defs/><path d="M7.5 3v5c0 0.828 -1.344 1.5 -3 1.5s-3 -0.672 -3 -1.5V3Z" fill="#ffffff" stroke-width="1.0000"/><path d="M4.5 3h-3v5c0 0.828 1.344 1.5 3 1.5Z" fill="#dff9ff" stroke-width="1.0000"/><path d="M7.5 3v5c0 0.828 -1.344 1.5 -3 1.5s-3 -0.672 -3 -1.5V3" stroke="#2aaae2" stroke-linecap="round" stroke-linejoin="round" fill="none" stroke-width="1.0000"/><path d="M22.5 3v5c0 0.828 -1.344 1.5 -3 1.5s-3 -0.672 -3 -1.5V3Z" fill="#ffffff" stroke-width="1.0000"/><path d="M19.5 3h-3v5c0 0.828 1.344 1.5 3 1.5Z" fill="#dff9ff" stroke-width="1.0000"/><path d="M22.5 3v5c0 0.828 -1.344 1.5 -3 1.5s-3 -0.672 -3 -1.5V3" stroke="#2aaae2" stroke-linecap="round" stroke-linejoin="round" fill="none" stroke-width="1.0000"/><path d="M7.5 16v5c0 0.828 -1.344 1.5 -3 1.5s-3 -0.672 -3 -1.5v-5Z" fill="#ffffff" stroke-width="1.0000"/><path d="M4.5 16h-3v5c0 0.828 1.344 1.5 3 1.5Z" fill="#dff9ff" stroke-width="1.0000"/><path d="M7.5 16v5c0 0.828 -1.344 1.5 -3 1.5s-3 -0.672 -3 -1.5v-5" stroke="#2aaae2" stroke-linecap="round" stroke-linejoin="round" fill="none" stroke-width="1.0000"/><path d="M22.5 16v5c0 0.828 -1.344 1.5 -3 1.5s-3 -0.672 -3 -1.5v-5Z" fill="#ffffff" stroke-width="1.0000"/><path d="M19.5 16h-3v5c0 0.828 1.344 1.5 3 1.5Z" fill="#dff9ff" stroke-width="1.0000"/><path d="M22.5 16v5c0 0.828 -1.344 1.5 -3 1.5s-3 -0.672 -3 -1.5v-5" stroke="#2aaae2" stroke-linecap="round" stroke-linejoin="round" fill="none" stroke-width="1.0000"/><path d="M1.5 3.001a3 1.5 0 1 0 6 0 3 1.5 0 1 0 -6 0" fill="#ffffff" stroke="#2aaae2" stroke-linecap="round" stroke-linejoin="round" stroke-width="1.0000"/><path d="M7.5 5.5c0 0.828 -1.344 1.5 -3 1.5s-3 -0.672 -3 -1.5" stroke="#2aaae2" stroke-linecap="round" stroke-linejoin="round" fill="none" stroke-width="1.0000"/><path d="M16.5 3.001a3 1.5 0 1 0 6 0 3 1.5 0 1 0 -6 0" fill="#ffffff" stroke="#2aaae2" stroke-linecap="round" stroke-linejoin="round" stroke-width="1.0000"/><path d="M22.5 5.5c0 0.828 -1.344 1.5 -3 1.5s-3 -0.672 -3 -1.5" stroke="#2aaae2" stroke-linecap="round" stroke-linejoin="round" fill="none" stroke-width="1.0000"/><path d="M1.5 16.001a3 1.5 0 1 0 6 0 3 1.5 0 1 0 -6 0" fill="#ffffff" stroke="#2aaae2" stroke-linecap="round" stroke-linejoin="round" stroke-width="1.0000"/><path d="M7.5 18.5c0 0.828 -1.344 1.5 -3 1.5s-3 -0.672 -3 -1.5" stroke="#2aaae2" stroke-linecap="round" stroke-linejoin="round" fill="none" stroke-width="1.0000"/><path d="M16.5 16.001a3 1.5 0 1 0 6 0 3 1.5 0 1 0 -6 0" fill="#ffffff" stroke="#2aaae2" stroke-linecap="round" stroke-linejoin="round" stroke-width="1.0000"/><path d="M22.5 18.5c0 0.828 -1.344 1.5 -3 1.5s-3 -0.672 -3 -1.5" stroke="#2aaae2" stroke-linecap="round" stroke-linejoin="round" fill="none" stroke-width="1.0000"/><path d="m7.386 8.408 9.233 7.175" stroke="#2aaae2" stroke-linecap="round" stroke-linejoin="round" fill="none" stroke-width="1.0000"/><path d="m7.386 15.583 9.233 -7.175" stroke="#2aaae2" stroke-linecap="round" stroke-linejoin="round" fill="none" stroke-width="1.0000"/></svg>