<svg xmlns="http://www.w3.org/2000/svg" viewBox="0 0 24 24" id="Seo-Network--Streamline-Ultimate"><desc>Seo Network Streamline Icon: https://streamlinehq.com</desc><defs/><path d="M18 17.5a5.5 5.5 0 1 0 -5.5 -5.5 5.5 5.5 0 0 0 5.5 5.5Z" fill="#dff9ff" stroke-width="1.0000"/><path d="M18 14.709a5.5 5.5 0 0 1 -5.315 -4.1 5.5 5.5 0 1 0 10.629 0 5.5 5.5 0 0 1 -5.314 4.1Z" fill="#ffffff" stroke-width="1.0000"/><path d="M18 17.5a5.5 5.5 0 1 0 -5.5 -5.5 5.5 5.5 0 0 0 5.5 5.5Z" stroke="#2aaae2" stroke-linecap="round" stroke-linejoin="round" fill="none" stroke-width="1.0000"/><path d="M10.473 16h-2.5a1.5 1.5 0 0 1 -1.5 -1.5v-5a1.5 1.5 0 0 1 1.5 -1.5h2.5" stroke="#2aaae2" stroke-linecap="round" stroke-linejoin="round" fill="none" stroke-width="1.0000"/><path d="M6.473 12h2.5" stroke="#2aaae2" stroke-linecap="round" stroke-linejoin="round" fill="none" stroke-width="1.0000"/><path d="M4.5 8H2.352a1.854 1.854 0 0 0 -0.829 3.512l1.95 0.976A1.854 1.854 0 0 1 2.644 16H0.5" stroke="#2aaae2" stroke-linecap="round" stroke-linejoin="round" fill="none" stroke-width="1.0000"/><path d="M23.5 12a5.471 5.471 0 0 1 -1.3 3.55 2.721 2.721 0 0 1 -1.45 -2.43h-0.69a2.06 2.06 0 0 1 0 -4.12h2.55a5.481 5.481 0 0 1 0.89 3Z" fill="#ffffff" stroke="#2aaae2" stroke-linecap="round" stroke-linejoin="round" stroke-width="1.0000"/><path d="M16.5 14v3.29A5.487 5.487 0 0 1 12.592 13H15.5a1 1 0 0 1 1 1Z" fill="#ffffff" stroke="#2aaae2" stroke-linecap="round" stroke-linejoin="round" stroke-width="1.0000"/></svg>