<svg xmlns="http://www.w3.org/2000/svg" viewBox="0 0 24 24" id="Browser-Page-Hierarchy--Streamline-Ultimate"><desc>Browser Page Hierarchy Streamline Icon: https://streamlinehq.com</desc><defs/><path d="M23.5 7v13a2 2 0 0 1 -2 2h-19a2 2 0 0 1 -2 -2V7Z" fill="#ffffff" stroke-width="1.0000"/><path d="M5 22 20 7H0.5v13a2 2 0 0 0 2 2Z" fill="#dff9ff" stroke-width="1.0000"/><path d="M23.5 7H0.5V4a2 2 0 0 1 2 -2h19a2 2 0 0 1 2 2Z" fill="#ffffff" stroke-width="1.0000"/><path d="M2.5 2h19s2 0 2 2v16s0 2 -2 2h-19s-2 0 -2 -2V4s0 -2 2 -2" stroke="#2aaae2" stroke-linecap="round" stroke-linejoin="round" fill="none" stroke-width="1.0000"/><path d="m0.5 7 23 0" stroke="#2aaae2" stroke-linecap="round" stroke-linejoin="round" fill="none" stroke-width="1.0000"/><path d="M4 4.25a0.25 0.25 0 1 1 -0.25 0.25 0.25 0.25 0 0 1 0.25 -0.25" stroke="#2aaae2" stroke-linecap="round" stroke-linejoin="round" fill="none" stroke-width="1.0000"/><path d="M7 4.25a0.25 0.25 0 1 1 -0.25 0.25 0.25 0.25 0 0 1 0.25 -0.25" stroke="#2aaae2" stroke-linecap="round" stroke-linejoin="round" fill="none" stroke-width="1.0000"/><path d="M10 4.25a0.25 0.25 0 1 1 -0.25 0.25 0.25 0.25 0 0 1 0.25 -0.25" stroke="#2aaae2" stroke-linecap="round" stroke-linejoin="round" fill="none" stroke-width="1.0000"/><path d="M5 16h2s0.5 0 0.5 0.5v2s0 0.5 -0.5 0.5H5s-0.5 0 -0.5 -0.5v-2s0 -0.5 0.5 -0.5" fill="#ffffff" stroke="#2aaae2" stroke-linecap="round" stroke-linejoin="round" stroke-width="1.0000"/><path d="M10.5 11.5a1.5 1.5 0 1 0 3 0 1.5 1.5 0 1 0 -3 0" fill="#ffffff" stroke="#2aaae2" stroke-linecap="round" stroke-linejoin="round" stroke-width="1.0000"/><path d="M11 16h2s0.5 0 0.5 0.5v2s0 0.5 -0.5 0.5h-2s-0.5 0 -0.5 -0.5v-2s0 -0.5 0.5 -0.5" fill="#ffffff" stroke="#2aaae2" stroke-linecap="round" stroke-linejoin="round" stroke-width="1.0000"/><path d="M17 16h2s0.5 0 0.5 0.5v2s0 0.5 -0.5 0.5h-2s-0.5 0 -0.5 -0.5v-2s0 -0.5 0.5 -0.5" fill="#ffffff" stroke="#2aaae2" stroke-linecap="round" stroke-linejoin="round" stroke-width="1.0000"/><path d="M13.5 12h3a1 1 0 0 1 1 1v3" stroke="#2aaae2" stroke-linecap="round" stroke-linejoin="round" fill="none" stroke-width="1.0000"/><path d="M10.5 12h-3a1 1 0 0 0 -1 1v3" stroke="#2aaae2" stroke-linecap="round" stroke-linejoin="round" fill="none" stroke-width="1.0000"/><path d="m12 13 0 3" stroke="#2aaae2" stroke-linecap="round" stroke-linejoin="round" fill="none" stroke-width="1.0000"/></svg>